<svg xmlns="http://www.w3.org/2000/svg" version="1.1" xmlns:xlink="http://www.w3.org/1999/xlink" xmlns:svgjs="http://svgjs.dev/svgjs" width="128" height="128" viewBox="0 0 128 128"><g transform="matrix(0.8046875,0,0,0.8046875,12.506335372881338,13.363646327313766)"><svg viewBox="0 0 59 58" data-background-color="#ffffff" preserveAspectRatio="xMidYMid meet" height="125" width="128" xmlns="http://www.w3.org/2000/svg" xmlns:xlink="http://www.w3.org/1999/xlink"><g id="tight-bounds" transform="matrix(1,0,0,1,-0.0036289999999894462,0.19800308085612528)"><svg viewBox="0 0 59.00725799999999 57.60399383828774" height="57.60399383828774" width="59.00725799999999"><g><svg viewBox="0 0 59.00725799999999 57.60399383828774" height="57.60399383828774" width="59.00725799999999"><g><svg viewBox="0 0 59.00725799999999 57.60399383828774" height="57.60399383828774" width="59.00725799999999"><g><svg viewBox="0 0 59.00725799999999 57.60399383828774" height="57.60399383828774" width="59.00725799999999"><g id="textblocktransform"><svg viewBox="0 0 59.00725799999999 57.60399383828774" height="57.60399383828774" width="59.00725799999999" id="textblock"><g><svg viewBox="0 0 59.00725799999999 57.60399383828774" height="57.60399383828774" width="59.00725799999999"><g><svg viewBox="0 0 59.00725799999999 57.60399383828774" height="57.60399383828774" width="59.00725799999999"><g><svg xmlns="http://www.w3.org/2000/svg" xmlns:xlink="http://www.w3.org/1999/xlink" version="1.1" x="0" y="0" viewBox="8 8.899999999999999 84.1 82.1" style="enable-background:new 0 0 100 100;" xml:space="preserve" height="57.60399383828774" width="59.00725799999999" class="icon-icon-0" data-fill-palette-color="accent" id="icon-0"><g fill="#ee3e38" data-fill-palette-color="accent"><path d="M81 9c-6.1 0-11 4.9-11 11 0 1.2 0.2 2.4 0.6 3.6L54.3 39.9C53 39.3 51.5 39 50 39c-6.1 0-11 4.9-11 11s4.9 11 11 11 11-4.9 11-11c0-2.4-0.8-4.5-2-6.3l15.1-15.1C76 30.1 78.4 31 81 31c6.1 0 11-4.9 11-11S87.1 9 81 9zM50 55c-2.8 0-5-2.2-5-5s2.2-5 5-5 5 2.2 5 5S52.8 55 50 55zM81 25c-2.8 0-5-2.2-5-5s2.2-5 5-5 5 2.2 5 5S83.8 25 81 25z" fill="#ee3e38" data-fill-palette-color="accent"></path><path d="M50 31c6.1 0 11-4.9 11-11S56.1 9 50 9s-11 4.9-11 11S43.9 31 50 31zM50 15c2.8 0 5 2.2 5 5s-2.2 5-5 5-5-2.2-5-5S47.2 15 50 15z" fill="#ee3e38" data-fill-palette-color="accent"></path><path d="M81 39c-6.1 0-11 4.9-11 11s4.9 11 11 11 11-4.9 11-11S87.1 39 81 39zM81 55c-2.8 0-5-2.2-5-5s2.2-5 5-5 5 2.2 5 5S83.8 55 81 55z" fill="#ee3e38" data-fill-palette-color="accent"></path><path d="M19 91c6.1 0 11-4.9 11-11s-4.9-11-11-11S8 73.9 8 80 12.9 91 19 91zM19 75c2.8 0 5 2.2 5 5s-2.2 5-5 5-5-2.2-5-5S16.2 75 19 75z" fill="#ee3e38" data-fill-palette-color="accent"></path><path d="M81 69c-5 0-9.3 3.4-10.6 8h-9.9c-1.3-4.6-5.5-8-10.6-8-3 0-5.8 1.2-7.8 3.2l-15-15C29 55.3 30 52.8 30 50c0-5-3.4-9.3-8-10.6v-8.9c4.6-1.3 8-5.5 8-10.6 0-6.1-4.9-11-11-11S8 13.9 8 20c0 5 3.4 9.3 8 10.6v8.9C11.4 40.7 8 45 8 50c0 6.1 4.9 11 11 11 1.1 0 2.1-0.2 3.1-0.4l17.2 17.2C39.1 78.5 39 79.2 39 80c0 6.1 4.9 11 11 11 5 0 9.3-3.4 10.6-8h9.9c1.3 4.6 5.5 8 10.6 8 6.1 0 11-4.9 11-11S87.1 69 81 69zM14 20c0-2.8 2.2-5 5-5s5 2.2 5 5-2.2 5-5 5S14 22.8 14 20zM14 50c0-2.8 2.2-5 5-5s5 2.2 5 5-2.2 5-5 5S14 52.8 14 50zM50 85c-2.8 0-5-2.2-5-5s2.2-5 5-5 5 2.2 5 5S52.8 85 50 85zM81 85c-2.8 0-5-2.2-5-5s2.2-5 5-5 5 2.2 5 5S83.8 85 81 85z" fill="#ee3e38" data-fill-palette-color="accent"></path></g></svg></g></svg></g></svg></g></svg></g></svg></g><g></g></svg></g></svg></g><defs></defs></svg><rect width="59.00725799999999" height="57.60399383828774" fill="none" stroke="none" visibility="hidden"></rect></g></svg></g></svg>